/* XPM */
static char * xpcomviewer_xpm[] = {
"32 32 643 2",
"  	c None",
". 	c #333367",
"+ 	c #333467",
"@ 	c #333366",
"# 	c #333468",
"$ 	c #333469",
"% 	c #33356A",
"& 	c #333569",
"* 	c #33366C",
"= 	c #33386F",
"- 	c #333971",
"; 	c #333973",
"> 	c #33366D",
", 	c #333870",
"' 	c #333972",
") 	c #333A74",
"! 	c #333B76",
"~ 	c #333B77",
"{ 	c #333C78",
"] 	c #333D79",
"^ 	c #333D7A",
"/ 	c #33376D",
"( 	c #33366B",
"_ 	c #333E7C",
": 	c #333E7D",
"< 	c #333F7E",
"[ 	c #333F7F",
"} 	c #33407F",
"| 	c #33356B",
"1 	c #333A73",
"2 	c #334080",
"3 	c #334181",
"4 	c #334182",
"5 	c #334283",
"6 	c #334284",
"7 	c #333871",
"8 	c #33376E",
"9 	c #323C77",
"0 	c #2A3364",
"a 	c #1F264B",
"b 	c #161B38",
"c 	c #060810",
"d 	c #181F3E",
"e 	c #293766",
"f 	c #334386",
"g 	c #334387",
"h 	c #334488",
"i 	c #334183",
"j 	c #252E5B",
"k 	c #11162B",
"l 	c #381423",
"m 	c #742623",
"n 	c #8D2C22",
"o 	c #812229",
"p 	c #411918",
"q 	c #2A131B",
"r 	c #1E1B39",
"s 	c #20294A",
"t 	c #222E52",
"u 	c #292642",
"v 	c #352B47",
"w 	c #303C77",
"x 	c #33468C",
"y 	c #33458A",
"z 	c #334489",
"A 	c #334487",
"B 	c #30376E",
"C 	c #161E36",
"D 	c #17060B",
"E 	c #6D261E",
"F 	c #D03F33",
"G 	c #EB4036",
"H 	c #C43628",
"I 	c #A42B28",
"J 	c #B03A29",
"K 	c #C43C24",
"L 	c #B4341F",
"M 	c #982D2B",
"N 	c #81262B",
"O 	c #7F2222",
"P 	c #812822",
"Q 	c #672E31",
"R 	c #353E79",
"S 	c #334890",
"T 	c #33478F",
"U 	c #33478D",
"V 	c #33468B",
"W 	c #334486",
"X 	c #2C315E",
"Y 	c #0E1222",
"Z 	c #030307",
"` 	c #6E1E23",
" .	c #E54434",
"..	c #D03E24",
"+.	c #6C211E",
"@.	c #080910",
"#.	c #1E101A",
"$.	c #A12E29",
"%.	c #E53B3E",
"&.	c #922B27",
"*.	c #441B23",
"=.	c #7C1E23",
"-.	c #B53625",
";.	c #4A1817",
">.	c #241113",
",.	c #1F2C53",
"'.	c #334A95",
").	c #334A94",
"!.	c #334992",
"~.	c #334184",
"{.	c #262B50",
"].	c #0A0D12",
"^.	c #05030D",
"/.	c #050810",
"(.	c #A12F2D",
"_.	c #EB392E",
":.	c #5C1A18",
"<.	c #110C13",
"[.	c #3C1416",
"}.	c #CA443A",
"|.	c #8E342A",
"1.	c #4F1422",
"2.	c #672A25",
"3.	c #1B090F",
"4.	c #792C29",
"5.	c #A94238",
"6.	c #170E16",
"7.	c #2A1015",
"8.	c #562730",
"9.	c #303F7B",
"0.	c #334C98",
"a.	c #334B96",
"b.	c #334991",
"c.	c #33478E",
"d.	c #1D1F38",
"e.	c #040505",
"f.	c #09070B",
"g.	c #090613",
"h.	c #100A11",
"i.	c #B43530",
"j.	c #D93830",
"k.	c #B02F25",
"l.	c #C03940",
"m.	c #7B2728",
"n.	c #461A17",
"o.	c #050712",
"p.	c #050915",
"q.	c #AA3928",
"r.	c #C23637",
"s.	c #AA3630",
"t.	c #7D312D",
"u.	c #53212A",
"v.	c #9E302C",
"w.	c #D43A2B",
"x.	c #9C3034",
"y.	c #5B3A5E",
"z.	c #334380",
"A.	c #334B95",
"B.	c #333363",
"C.	c #232542",
"D.	c #141625",
"E.	c #191C2C",
"F.	c #0E0A10",
"G.	c #050610",
"H.	c #341119",
"I.	c #CE3A37",
"J.	c #D33726",
"K.	c #E13C2C",
"L.	c #D23C37",
"M.	c #46151A",
"N.	c #050710",
"O.	c #080812",
"P.	c #080811",
"Q.	c #AA2C2D",
"R.	c #E23E2E",
"S.	c #DA383C",
"T.	c #942426",
"U.	c #6D231F",
"V.	c #8D2426",
"W.	c #D23632",
"X.	c #E33A2E",
"Y.	c #CC3B27",
"Z.	c #A43733",
"`.	c #693849",
" +	c #2F3766",
".+	c #2D4283",
"++	c #333A75",
"@+	c #333462",
"#+	c #2F3465",
"$+	c #363C73",
"%+	c #1B1E32",
"&+	c #040C0B",
"*+	c #05060D",
"=+	c #3C1118",
"-+	c #D23D36",
";+	c #DC3629",
">+	c #C73B2F",
",+	c #AB2B26",
"'+	c #B93335",
")+	c #AA3537",
"!+	c #9D2E2F",
"~+	c #99242D",
"{+	c #CD2F36",
"]+	c #CF3D23",
"^+	c #782323",
"/+	c #B03D3B",
"(+	c #D0373B",
"_+	c #D63A2E",
":+	c #CF3D26",
"<+	c #C73F25",
"[+	c #D13B2C",
"}+	c #DA3932",
"|+	c #DA3630",
"1+	c #B13225",
"2+	c #602626",
"3+	c #2A3562",
"4+	c #B1B3C5",
"5+	c #BBBBBF",
"6+	c #090A0D",
"7+	c #2A282D",
"8+	c #DBD5D5",
"9+	c #C58987",
"0+	c #F1C2BE",
"a+	c #FBE9E8",
"b+	c #F5EBEB",
"c+	c #A7797A",
"d+	c #E13F37",
"e+	c #E86F64",
"f+	c #FDF5F4",
"g+	c #EBEBEB",
"h+	c #CFC0BF",
"i+	c #B28D89",
"j+	c #BCB6B1",
"k+	c #BDB9B6",
"l+	c #CCCAC9",
"m+	c #CEB4B1",
"n+	c #D44833",
"o+	c #E57469",
"p+	c #FAE3E2",
"q+	c #D9685E",
"r+	c #D93827",
"s+	c #EA8C7F",
"t+	c #F8DCDC",
"u+	c #7B636F",
"v+	c #2D3972",
"w+	c #33376F",
"x+	c #343663",
"y+	c #50536D",
"z+	c #F0F1F2",
"A+	c #707275",
"B+	c #A4A3A5",
"C+	c #F0E2E1",
"D+	c #E95F53",
"E+	c #FDF6F5",
"F+	c #F5C4C0",
"G+	c #C8AAAC",
"H+	c #FBFBFB",
"I+	c #EC8A87",
"J+	c #FBEAE8",
"K+	c #D2BBB8",
"L+	c #CDBBB6",
"M+	c #E4E3E2",
"N+	c #D0D8E2",
"O+	c #B6C7DB",
"P+	c #C5D1DF",
"Q+	c #E1E3E5",
"R+	c #D9D6D3",
"S+	c #B7A1A2",
"T+	c #D7807D",
"U+	c #FFFFFF",
"V+	c #EDBBB6",
"W+	c #D0382B",
"X+	c #F8DEDA",
"Y+	c #7F7376",
"Z+	c #322A49",
"`+	c #35396C",
" @	c #2C3262",
".@	c #6A6D7C",
"+@	c #EDEDEE",
"@@	c #934D48",
"#@	c #E94637",
"$@	c #EB7B73",
"%@	c #6B3436",
"&@	c #F3DEDF",
"*@	c #D0CFCF",
"=@	c #DBD9D6",
"-@	c #C5D0DF",
";@	c #6789B6",
">@	c #6183B1",
",@	c #799CC5",
"'@	c #5A7FAC",
")@	c #4F78A9",
"!@	c #9FB5D2",
"~@	c #E9E8E7",
"{@	c #B5B0AE",
"]@	c #E1DAD9",
"^@	c #FBE4E1",
"/@	c #EEA097",
"(@	c #FCEEED",
"_@	c #CC898C",
":@	c #431C22",
"<@	c #32386F",
"[@	c #2D3364",
"}@	c #494F79",
"|@	c #E2E3E3",
"1@	c #401419",
"2@	c #D05149",
"3@	c #FDF6F6",
"4@	c #FCECEA",
"5@	c #F5EFEE",
"6@	c #CBCCCD",
"7@	c #968A8D",
"8@	c #D6D3CF",
"9@	c #B3C4D9",
"0@	c #536FA3",
"a@	c #B0B0C5",
"b@	c #E4E3EB",
"c@	c #E9F1F9",
"d@	c #C6CFDC",
"e@	c #9DA6BD",
"f@	c #527BAC",
"g@	c #7999C1",
"h@	c #EAEAE9",
"i@	c #AFACAC",
"j@	c #D8C0BF",
"k@	c #D8A19C",
"l@	c #FFFEFE",
"m@	c #DC8B8B",
"n@	c #371617",
"o@	c #313971",
"p@	c #B9BAC0",
"q@	c #D7D8DE",
"r@	c #E3E3E6",
"s@	c #888588",
"t@	c #8C4039",
"u@	c #FFFDFD",
"v@	c #F4BAB7",
"w@	c #C86F69",
"x@	c #3E2021",
"y@	c #B49F9F",
"z@	c #D4DAE2",
"A@	c #537AAB",
"B@	c #C4B9CE",
"C@	c #F2EBEE",
"D@	c #EDEBF0",
"E@	c #E8EEF7",
"F@	c #D4DBE6",
"G@	c #D7D1DC",
"H@	c #C4CEE1",
"I@	c #5C85B7",
"J@	c #A4B9D4",
"K@	c #DAD8D5",
"L@	c #959FA5",
"M@	c #DADCDF",
"N@	c #887F85",
"O@	c #FEFEFE",
"P@	c #8D767A",
"Q@	c #2A345F",
"R@	c #A2A5BB",
"S@	c #3F4878",
"T@	c #61616B",
"U@	c #877071",
"V@	c #E68883",
"W@	c #D24032",
"X@	c #9F2B2B",
"Y@	c #C7BEBD",
"Z@	c #93ABCC",
"`@	c #88A9D0",
" #	c #E5ECF3",
".#	c #E4ECF5",
"+#	c #E1DEE6",
"@#	c #E3E2EB",
"##	c #E1EBF5",
"$#	c #DCE3EE",
"%#	c #BCD0E8",
"&#	c #8D87A8",
"*#	c #5E80B1",
"=#	c #E7E7E7",
"-#	c #988080",
";#	c #856A74",
">#	c #849591",
",#	c #788296",
"'#	c #5D6493",
")#	c #525A8E",
"!#	c #293057",
"~#	c #141D28",
"{#	c #33343C",
"]#	c #5A3339",
"^#	c #D65E50",
"/#	c #D54838",
"(#	c #CE3831",
"_#	c #BB514D",
":#	c #CAC9C6",
"<#	c #6E8BB7",
"[#	c #A4A7C3",
"}#	c #D4D9E5",
"|#	c #C1CCD8",
"1#	c #BEC4CF",
"2#	c #BABFC9",
"3#	c #C4CBD7",
"4#	c #BBC7D9",
"5#	c #6A83AB",
"6#	c #536C97",
"7#	c #5375A5",
"8#	c #C9D2DD",
"9#	c #AA9895",
"0#	c #541D22",
"a#	c #211F36",
"b#	c #475781",
"c#	c #405DA8",
"d#	c #333C77",
"e#	c #333E7A",
"f#	c #343F7B",
"g#	c #1B1B37",
"h#	c #03050D",
"i#	c #592729",
"j#	c #CF4436",
"k#	c #DB312D",
"l#	c #AC635C",
"m#	c #CECCCA",
"n#	c #6480AE",
"o#	c #A294AD",
"p#	c #D0C4CE",
"q#	c #AEB4C0",
"r#	c #A7B2C2",
"s#	c #AEBFDB",
"t#	c #A1B8DC",
"u#	c #648ED2",
"v#	c #4A7BC8",
"w#	c #5382CA",
"x#	c #4975B3",
"y#	c #BAC6D6",
"z#	c #A8A9AC",
"A#	c #2C4A87",
"B#	c #3457AC",
"C#	c #3353A6",
"D#	c #3350A1",
"E#	c #1D2445",
"F#	c #07070B",
"G#	c #07070E",
"H#	c #6E1E21",
"I#	c #D34030",
"J#	c #D13D25",
"K#	c #B7463C",
"L#	c #C5C3C1",
"M#	c #829DC3",
"N#	c #867DA0",
"O#	c #BEA3B2",
"P#	c #989DAB",
"Q#	c #8DA3C6",
"R#	c #7D9DD6",
"S#	c #537ECB",
"T#	c #4474C7",
"U#	c #4D7BC8",
"V#	c #4F7DC8",
"W#	c #4C77B1",
"X#	c #D6D9DE",
"Y#	c #9095A3",
"Z#	c #3357AF",
"`#	c #3355AA",
" $	c #333D7B",
".$	c #313E7B",
"+$	c #161E38",
"@$	c #341214",
"#$	c #94302D",
"$$	c #BC3830",
"%$	c #DA3336",
"&$	c #D33630",
"*$	c #C6342B",
"=$	c #C2B3AF",
"-$	c #B6C5D8",
";$	c #556999",
">$	c #9E778E",
",$	c #5B5E7D",
"'$	c #4A73BB",
")$	c #426EC0",
"!$	c #3D6AC2",
"~$	c #4573C4",
"{$	c #4E79C8",
"]$	c #3F6FBB",
"^$	c #7091BE",
"/$	c #E0DDDB",
"($	c #677597",
"_$	c #3357AD",
":$	c #3354A9",
"<$	c #3352A4",
"[$	c #333B75",
"}$	c #324181",
"|$	c #1D1C34",
"1$	c #671E14",
"2$	c #CF3E2C",
"3$	c #DE3D27",
"4$	c #DA352E",
"5$	c #C63A2C",
"6$	c #AC736B",
"7$	c #E4E2E0",
"8$	c #7C9AC2",
"9$	c #3A5682",
"0$	c #48618C",
"a$	c #4D76C2",
"b$	c #4771C0",
"c$	c #4570C2",
"d$	c #4974C4",
"e$	c #3D6DBB",
"f$	c #4672AE",
"g$	c #D7DEE7",
"h$	c #A7A7A7",
"i$	c #345199",
"j$	c #3355AB",
"k$	c #3353A7",
"l$	c #314181",
"m$	c #1A244B",
"n$	c #361620",
"o$	c #A63424",
"p$	c #D63B2F",
"q$	c #D54231",
"r$	c #D33F2F",
"s$	c #B3A2A0",
"t$	c #EAECEF",
"u$	c #809EC5",
"v$	c #35629E",
"w$	c #3968B3",
"x$	c #416DB8",
"y$	c #3A69B6",
"z$	c #2E5FAD",
"A$	c #567DB2",
"B$	c #CCD7E6",
"C$	c #F5F2EE",
"D$	c #939494",
"E$	c #4F5B7A",
"F$	c #30509F",
"G$	c #3351A2",
"H$	c #334285",
"I$	c #334589",
"J$	c #2D3F7E",
"K$	c #29284F",
"L$	c #482130",
"M$	c #6D2422",
"N$	c #933330",
"O$	c #763E3F",
"P$	c #A09E9E",
"Q$	c #E9E7E5",
"R$	c #C0CFE1",
"S$	c #97AFCE",
"T$	c #7B9AC2",
"U$	c #8CA8C9",
"V$	c #ACBFD9",
"W$	c #E2E4E8",
"X$	c #DAD7D4",
"Y$	c #CFCFD0",
"Z$	c #A4A4A4",
"`$	c #959595",
" %	c #596071",
".%	c #2D366B",
"+%	c #334082",
"@%	c #2E4386",
"#%	c #1F2E5D",
"$%	c #1E2E5C",
"%%	c #11152C",
"&%	c #111622",
"*%	c #757E96",
"=%	c #C4C2C0",
"-%	c #D7D4D1",
";%	c #D8D8D8",
">%	c #D8D7D6",
",%	c #D3D0CB",
"'%	c #8D919F",
")%	c #5F6677",
"!%	c #A8A8A8",
"~%	c #B0B0B0",
"{%	c #A0A0A0",
"]%	c #9C9C9C",
"^%	c #616169",
"/%	c #33468D",
"(%	c #334891",
"_%	c #334E9B",
":%	c #334F9E",
"<%	c #405898",
"[%	c #4C6094",
"}%	c #627198",
"|%	c #5B6B97",
"1%	c #455B93",
"2%	c #3252A2",
"3%	c #304E9E",
"4%	c #576075",
"5%	c #A2A2A2",
"6%	c #B7B7B7",
"7%	c #9F9F9F",
"8%	c #717171",
"9%	c #334D99",
"0%	c #334E9D",
"a%	c #33509F",
"b%	c #3351A3",
"c%	c #3352A3",
"d%	c #3350A2",
"e%	c #31478D",
"f%	c #47495D",
"g%	c #999999",
"h%	c #B8B8B8",
"i%	c #A1A1A1",
"j%	c #A3A3A3",
"k%	c #828282",
"l%	c #334081",
"m%	c #334790",
"n%	c #324891",
"o%	c #314891",
"p%	c #304891",
"q%	c #2F4890",
"r%	c #2F4891",
"s%	c #2E4890",
"t%	c #2E478E",
"u%	c #2E4080",
"v%	c #2E3468",
"w%	c #303060",
"x%	c #303870",
"y%	c #3E3F44",
"z%	c #909090",
"A%	c #B5B5B5",
"B%	c #C6C6C6",
"C%	c #DDDDDD",
"D%	c #747474",
"E%	c #313D78",
"F%	c #304081",
"G%	c #2F4386",
"H%	c #2F4384",
"I%	c #2E3E7C",
"J%	c #2D3871",
"K%	c #2C3467",
"L%	c #2B2E5B",
"M%	c #2B2D59",
"N%	c #2A3060",
"O%	c #868686",
"P%	c #D1D1D1",
"Q%	c #CCCCCC",
"R%	c #727272",
"S%	c #32366C",
"T%	c #313162",
"U%	c #303061",
"V%	c #2F2F5F",
"W%	c #2E3366",
"X%	c #2E3367",
"Y%	c #2B3365",
"Z%	c #6B6B6B",
"                      . + + @ @ @ @ # $ %                       ",
"                  @ @ . & * = - ; - = * $ + %                   ",
"              @ @ # > , ' ) ! ~ { ] ^ ^ ^ ! / + *               ",
"            @ . ( = ' ) ! { ^ _ : < < [ } [ < ] | %             ",
"          @ # / , 1 ! { ^ _ < 2 3 4 5 6 6 6 5 4 3 7 #           ",
"        @ # 8 7 ) 9 0 a b c d e f g h h h h h g f i ) #         ",
"      @ # / 7 ) j k l m n o p q r s t u v w x x y z A ' |       ",
"    @ . > , B C D E F G H I J K L M N O P Q R S T U V W / ,     ",
"    @ ( , X Y Z `  ...+.@.#.$.%.&.*.=.-.;.>.,.'.).!.S U ~..     ",
"  @ + 8 {.].^./.(._.:.<.[.}.|.1.2.3.4.5.6.7.8.9.0.a.).b.c.- =   ",
"  @ | d.e.f.g.h.i.j.k.l.m.n.o.p.q.r.s.t.u.v.w.x.y.z.0.A.!.f $   ",
"@ B.C.D.E.F.G.H.I.J.K.L.M.N.O.P.Q.R.S.T.U.V.W.X.Y.Z.`. +.+!.| ++",
". @+#+$+%+&+*+=+-+;+>+,+'+)+!+~+{+]+^+/+(+_+:+<+[+}+|+1+2+3+) - ",
". ( 4+5+6+7+8+9+0+a+b+c+d+e+f+g+h+i+j+k+l+m+n+o+p+q+r+s+t+u+v+w+",
"@ x+y+z+A+B+C+D+E+F+G+H+I+J+K+L+M+N+O+P+Q+R+S+T+U+V+W+X+U+Y+Z+@ ",
"@ `+ @.@U++@@@#@U+$@%@U+&@*@=@-@;@>@,@'@)@!@~@{@]@^@/@(@U+_@:@@ ",
"@ <@[@}@U+|@1@2@3@4@5@6@7@8@9@0@a@b@c@d@e@f@g@h@i@j@U+k@l@m@n@@ ",
"@ , o@p@q@r@s@t@u@v@w@x@y@z@A@B@C@D@E@F@G@H@I@J@K@L@M@N@O@P@Q@@ ",
"# / R@O@S@T@U+U@U+V@W@X@Y@Z@`@ #.#+#@###$#%#&#*#=#-#;#>#U+,#6 , ",
"# | '#)#!#~#{#]#^#/#(#_#:#<#[#}#|#1#2#3#4#5#6#7#8#9#0#a#b#c#d#) ",
"& # d#e#f#g#h#i#j#J.k#l#m#n#o#p#q#r#s#t#u#v#w#x#y#z#A#B#C#D#* ^ ",
"  + ) _ 2 E#F#G#H#I#J#K#L#M#N#O#P#Q#R#S#T#U#V#W#X#Y#Z#`#C#!.%   ",
"  & *  $.$+$@$#$$$%$&$*$=$-$;$>$,$'$)$!$~${$]$^$/$($_$:$<$d#[$  ",
"    @ d#[ }$|$1$2$3$4$5$6$7$8$9$0$a$b$c$d$e$f$g$h$i$j$k$).#     ",
"    | % _ 4 l$m$n$o$p$q$r$s$t$u$v$w$x$y$z$A$B$C$D$E$F$G$, {     ",
"      & w+2 H$I$J$K$L$M$N$O$P$Q$R$S$T$U$V$W$X$Y$Z$`$ %.%=       ",
"        # ; +%A V S @%#%$%%%&%*%=%-%;%>%,%'%)%!%~%{%]%^%        ",
"          # , 6 z /%(%).0._%:%D#<%[%}%|%1%2%3%4%5%6%{%7%8%      ",
"            % | } y c.b.).0.9%0%a%D#G$b%c%d%G$e%f%g%h%i%j%k%    ",
"              w+# , l%/%m%n%o%p%p%q%r%s%t%u%v%w%x%y%z%A%B%C%D%  ",
"                  8 $ % <@E%F%G%H%I%J%K%L%M%N%        O%P%Q%R%  ",
"                      ; = S%T%U%U%V%W%X%Y%              Z%Z%    "};
